Coordinates
version=1
nRows=15
nColumns=34
inDegrees=yes

Units are S.I. units (second, meters, Newtons, ...)
Angles are in degrees.

endheader
time	pelvis_tilt	pelvis_list	pelvis_rotation	pelvis_tx	pelvis_ty	pelvis_tz	hip_flexion_r	hip_adduction_r	hip_rotation_r	knee_angle_r	ankle_angle_r	subtalar_angle_r	mtp_angle_r	hip_flexion_l	hip_adduction_l	hip_rotation_l	knee_angle_l	socket_flexion	socket_adduction	socket_rotation	socket_tx	socket_ty	socket_tz	pros_ankle_rx	pros_ankle_ry	pros_ankle_rz	pros_ankle_tx	pros_ankle_ty	pros_ankle_tz	foot_flex	lumbar_extension	lumbar_bending	lumbar_rotation
      0.90000000	      0.64235022	     -9.46950883	      2.90982272	      0.41980396	      1.03713907	      0.38600119	     11.17333402	     12.91861463	     -4.08129639	    -18.71206021	      8.84472011	      4.47431377	      8.07870408	     16.06082790	    -18.76938100	     -4.50022748	    -73.21962028	     -5.81108390	      0.00000000	      0.00000000	      0.00000000	     -0.01380801	      0.00000000	      0.00000000	      0.00000000	      0.00000000	      0.00000000	      0.00000000	      0.00000000	     -1.53902575	    -17.83687530	      5.46113665	      3.65230296
      0.90416667	      0.59443672	     -9.19699206	      2.94421839	      0.42499709	      1.03843899	      0.38560213	     10.67295448	     12.59849911	     -4.14489713	    -18.33664911	      8.89423646	      4.75538894	      8.13573548	     16.74026191	    -18.25014935	     -4.24673513	    -72.86802718	     -5.75547865	      0.00000000	      0.00000000	      0.00000000	     -0.01332607	      0.00000000	      0.00000000	      0.00000000	      0.00000000	      0.00000000	      0.00000000	      0.00000000	     -1.53857283	    -17.81460738	      5.15094679	      3.60740046
      0.90833333	      0.55064044	     -8.92198715	      2.97344806	      0.43017896	      1.03972966	      0.38519432	     10.17704531	     12.26812077	     -4.25200036	    -17.97402392	      8.93230539	      5.05619232	      8.20488164	     17.39304228	    -17.73137025	     -4.02497787	    -72.45835222	     -5.67840135	      0.00000000	      0.00000000	      0.00000000	     -0.01284452	      0.00000000	      0.00000000	      0.00000000	      0.00000000	      0.00000000	      0.00000000	      0.00000000	     -1.54096983	    -17.78374999	      4.83768404	      3.54693385
      0.91250000	      0.52520852	     -8.54061996	      3.09044658	      0.43564459	      1.04116013	      0.38461661	      9.68343206	     11.74334864	     -4.77261296	    -17.66720083	      8.89588001	      5.70337508	      8.42520539	     17.86535714	    -17.03871411	     -3.77487026	    -71.69540673	     -5.44034473	      0.00000000	      0.00000000	      0.00000000	     -0.01297154	      0.00000000	      0.00000000	      0.00000000	      0.00000000	      0.00000000	      0.00000000	      0.00000000	     -1.52648642	    -17.66142654	      4.37459940	      3.27627793
      0.91666667	      0.47973157	     -8.37998087	      2.96124167	      0.44071221	      1.04223271	      0.38441371	      9.24552965	     11.56192889	     -4.73906719	    -17.41006839	      9.01313931	      5.86617151	      8.47243693	     18.48718200	    -16.72468042	     -3.75723357	    -71.36725473	     -5.51294265	      0.00000000	      0.00000000	      0.00000000	     -0.01233592	      0.00000000	      0.00000000	      0.00000000	      0.00000000	      0.00000000	      0.00000000	      0.00000000	     -1.54127286	    -17.78564465	      4.34451722	      3.30075990
      0.92083333	      0.50231873	     -7.93613703	      3.15650287	      0.44610209	      1.04379080	      0.38373074	      8.64906516	     10.99356550	     -5.16264084	    -17.01445111	      8.95952070	      6.74277453	      8.82890592	     18.83701062	    -15.91155582	     -3.41983238	    -70.35565550	     -5.17682744	      0.00000000	      0.00000000	      0.00000000	     -0.01263168	      0.00000000	      0.00000000	      0.00000000	      0.00000000	      0.00000000	      0.00000000	      0.00000000	     -1.54539187	    -17.65680284	      3.75743537	      3.10222304
      0.92500000	      0.48335693	     -7.75917879	      3.11541006	      0.45110395	      1.04490804	      0.38343334	      8.13995245	     10.80171268	     -5.10752534	    -16.65925949	      9.11175728	      7.04620757	      8.95326406	     19.43942570	    -15.54062100	     -3.30054093	    -69.91919208	     -5.21330999	      0.00000000	      0.00000000	      0.00000000	     -0.01185208	      0.00000000	      0.00000000	      0.00000000	      0.00000000	      0.00000000	      0.00000000	      0.00000000	     -1.53915195	    -17.75543182	      3.53866755	      3.12774531
      0.92916667	      0.79375250	     -7.20583345	      3.13012259	      0.45681672	      1.04695638	      0.38295788	      7.29210231	     10.06045711	     -5.85109827	    -16.45111350	      9.28589207	      8.54519513	     10.08084786	     19.11387046	    -14.72267958	     -3.38122319	    -68.46623551	     -4.79008583	      0.00000000	      0.00000000	      0.00000000	     -0.01293449	      0.00000000	      0.00000000	      0.00000000	      0.00000000	      0.00000000	      0.00000000	      0.00000000	     -1.50251514	    -17.96828887	      2.93806462	      2.86056094
      0.93333333	      0.71906537	     -7.09716139	      3.07738137	      0.46159739	      1.04785925	      0.38277027	      6.90160086	      9.95694548	     -5.77437273	    -16.16113722	      9.30390703	      8.67540706	     10.13042942	     19.81915232	    -14.44038627	     -3.24052326	    -68.04334773	     -4.85284298	      0.00000000	      0.00000000	      0.00000000	     -0.01198223	      0.00000000	      0.00000000	      0.00000000	      0.00000000	      0.00000000	      0.00000000	      0.00000000	     -1.55645918	    -18.12302552	      2.83014015	      2.95746047
      0.93750000	      0.62792984	     -6.84841801	      3.09066276	      0.46691519	      1.04897540	      0.38224924	      6.42426048	      9.63034440	     -5.97953861	    -15.70800384	      9.02804801	      8.98387974	     10.41528287	     20.24898855	    -13.90413431	     -3.04003789	    -67.09306563	     -4.70903710	      0.00000000	      0.00000000	      0.00000000	     -0.01201168	      0.00000000	      0.00000000	      0.00000000	      0.00000000	      0.00000000	      0.00000000	      0.00000000	     -1.53449696	    -17.92254873	      2.50391778	      2.97998771
      0.94166667	      0.58030024	     -6.73617908	      2.98319339	      0.47178437	      1.04984740	      0.38204955	      6.00496654	      9.50685948	     -5.92058239	    -15.43312451	      9.11840079	      9.11560502	     10.47159492	     20.86770004	    -13.63972935	     -2.97753445	    -66.64460373	     -4.84508433	      0.00000000	      0.00000000	      0.00000000	     -0.01087923	      0.00000000	      0.00000000	      0.00000000	      0.00000000	      0.00000000	      0.00000000	      0.00000000	     -1.53799880	    -18.02248285	      2.40100610	      3.02849798
      0.94583333	      0.75623425	     -6.29973675	      2.92696830	      0.47730469	      1.05155197	      0.38180466	      5.24920910	      8.98258082	     -6.20040937	    -15.06542095	      9.03238584	      9.96880271	     11.40455269	     20.63482658	    -12.97540313	     -3.04544490	    -65.03018675	     -4.42954669	      0.00000000	      0.00000000	      0.00000000	     -0.01198050	      0.00000000	      0.00000000	      0.00000000	      0.00000000	      0.00000000	      0.00000000	      0.00000000	     -1.53468607	    -18.13638432	      1.80969508	      2.97417583
      0.95000000	      0.69745603	     -6.21322058	      2.89514131	      0.48221635	      1.05235236	      0.38147136	      4.81140967	      8.87961581	     -6.19128919	    -14.71406678	      8.97137250	     10.14498804	     11.48826931	     21.22958504	    -12.70344019	     -2.88868168	    -64.45656059	     -4.54263690	      0.00000000	      0.00000000	      0.00000000	     -0.01095908	      0.00000000	      0.00000000	      0.00000000	      0.00000000	      0.00000000	      0.00000000	      0.00000000	     -1.50530149	    -18.11041064	      1.67159912	      3.08098161
      0.95416667	      0.67201461	     -6.18815481	      2.72449618	      0.48704294	      1.05301935	      0.38129082	      4.47328365	      8.82121166	     -6.20916232	    -14.62711127	      8.98428295	     10.19856713	     11.50552430	     21.75841329	    -12.55855292	     -2.85617345	    -63.97707449	     -4.81231602	      0.00000000	      0.00000000	      0.00000000	     -0.00993415	      0.00000000	      0.00000000	      0.00000000	      0.00000000	      0.00000000	      0.00000000	      0.00000000	     -1.48048906	    -18.18538665	      1.66038133	      3.11342418
      0.95833333	      0.51383941	     -5.96210131	      2.75556987	      0.49251809	      1.05398362	      0.38091708	      3.97747239	      8.56268666	     -6.30086286	    -13.99123670	      8.65009894	     10.63089920	     11.70473642	     22.10983176	    -12.08621485	     -2.71302468	    -62.65575640	     -4.54412732	      0.00000000	      0.00000000	      0.00000000	     -0.01009039	      0.00000000	      0.00000000	      0.00000000	      0.00000000	      0.00000000	      0.00000000	      0.00000000	     -1.47258251	    -17.83218231	      1.34984670	      3.21192474
